<?xml version="1.0" encoding="utf-8"?>
<!-- Generator: Adobe Illustrator 15.0.2, SVG Export Plug-In . SVG Version: 6.00 Build 0)  -->
<!DOCTYPE svg PUBLIC "-//W3C//DTD SVG 1.1//EN" "http://www.w3.org/Graphics/SVG/1.1/DTD/svg11.dtd">
<svg version="1.1" id="Layer_2" xmlns="http://www.w3.org/2000/svg" xmlns:xlink="http://www.w3.org/1999/xlink" x="0px" y="0px"
	 width="250px" height="83px" viewBox="0 0 250 83" enable-background="new 0 0 250 83" xml:space="preserve" >
	 
	 
	 
	 
<g>
	<path id="tail_propeller" fill="#666666" d="M239.051,52.927c-0.12-0.12-6.488-6.488-8.817-8.817
	c2.803-2.803,11.651-11.651,11.881-11.881c0.272-0.272-2.12-1.255-4.751,1.375c-0.12,0.12-6.488,6.488-8.817,8.817
	c-2.803-2.802-11.651-11.651-11.881-11.88c-0.272-0.272-1.256,2.12,1.376,4.751c0.12,0.12,6.488,6.488,8.817,8.817
	c-2.804,2.803-11.65,11.649-11.881,11.881c-0.272,0.271,2.121,1.254,4.751-1.377c0.12-0.12,6.488-6.487,8.817-8.816
	c2.802,2.803,11.651,11.651,11.881,11.881C240.698,57.949,241.682,55.558,239.051,52.927z"/>
	<animateTransform  type="rotate" fill="remove" from="0,228.546,44.109" to="-360,228.546,44.109" begin="0s" dur="1s" restart="always" attributeName="transform" attributeType="XML" accumulate="none" additive="replace" calcMode="linear" repeatCount="indefinite">
		</animateTransform>
</g>
	
<g id="landing_gear_back">
	<path d="M73.814,77.43l0.001-0.006l-2.208-0.771h-2.75l4.307,1.938l0.472,0.131h47.596c0,0,0.909-0.189,0.636-0.521
		s-0.636-0.771-0.636-0.771H73.814z"/>
	<path d="M110.397,77.688c1.077,0.552,1.563,0.398,3.531,0c-0.844-2.102,1.25-7.82,4.719-10.602
		c-0.11-0.254-1.468-0.989-2.656-0.406C112.459,68.961,110.991,73.088,110.397,77.688z"/>
	<path d="M82.084,77.688c0,0.555,3.182,0.881,3.313-0.133c0.438-3.403,2.063-7.063,6.938-10.156c0.552-2.54-2.833-0.558-3.844,0.132
		C84.803,69.523,82.084,76.36,82.084,77.688z"/>
		

	<animateTransform  type="translate" fill="freeze" from="0,2" to="0,0" begin="0s" dur="2s" values="0,2; 0,1; 0,2" restart="always" attributeName="transform" attributeType="XML" accumulate="none" additive="replace" calcMode="linear" repeatCount="indefinite">
		</animateTransform>
 
</g>
<g id="chopper_blade">
	<rect x="97.213" y="17.609" width="18.667" height="2.583"/>
	<polygon points="108.258,17.609 104.834,17.609 105.288,16.151 107.804,16.151 	"/>
	<path fill="#666666" d="M209.17,19.703c-2,0-93.291,0-93.291,0v-1.604c0,0,90.003,0,91.085,0
		C208.045,18.099,211.17,19.703,209.17,19.703z"/>
	<path fill="#666666" d="M3.922,19.703c2,0,93.291,0,93.291,0v-1.604c0,0-90.003,0-91.085,0C5.047,18.099,1.922,19.703,3.922,19.703
		z"/>
		
		<animateTransform  type="translate" fill="freeze" from="0,2" to="0,0" begin="0s" dur="3s" values="0,2; 0,1; 0,2" restart="always" attributeName="transform" attributeType="XML" accumulate="none" additive="replace" calcMode="linear" repeatCount="indefinite">
		</animateTransform>
</g>

<rect x="105.89" y="19.213" width="0.907" height="13.458"/>
<rect x="107.804" y="19.213" width="0.454" height="13.458"/>
<rect x="104.28" y="19.213" width="0.454" height="13.458"/>
<g id="helicopter_body">
	<path fill="#B3B3B3" d="M232.046,41.776h-10.125l10.334-21.25c0,0,1.142-0.824,3.458-0.583s3.097,1.024,3.097,1.024L232.046,41.776
		z"/>
	<path fill="#B3B3B3" d="M231.879,46.359l-10.75,1.167l9.229,16.127c0,0,1.909-0.15,4.094-0.606
		c2.034-0.425,3.261-1.521,3.261-1.521L231.879,46.359z"/>
	<path fill="#CCCCCC" stroke="#B3B3B3" stroke-miterlimit="10" d="M98.046,32.672c1.375,0.006,11.833,0.063,13.5,0
		s28.726,2.553,29.917,3.101s12.959,6.607,14.333,6.595s64.334-0.591,66.125-0.591s5.584-2.292,7.5-2.417s1.019,1.863,2.625,2.417
		s7.986,1.417,6.764,2.333s-9.222,5.763-11.264,5.59s-2.374-3.32-4.5-3.34s-66.5,1.521-66.5,1.521l-37.899-0.688l-37.268-4.459
		c0,0,3.918-4.958,8-5.375s7.792,0.541,8.875,0.167s1.167-2.208,1.083-3s-0.75,0.042-1.292,0S96.671,32.666,98.046,32.672z"/>
	<path d="M223.539,43.826c-11.539,0.61-102.656,2.06-139.798-3.529c-1.387,1.275-2.193,2.232-2.193,2.232l37.983,2.472l37.518,0.751
		c0,0,63.871-0.079,65.997-0.06s2.125,3.952,4.5,4.007c2.134,0.049,8.438-3.908,11.264-5.542
		C232.643,46.192,226.554,43.667,223.539,43.826z"/>
	<path fill="#B3B3B3" d="M222.297,44.734c-1.417,0-75.94,0.334-84.442,0.634c-8.03,0.282-44.559-4.259-57.059-2.759
		S59.983,55.194,58.233,57.444c0,0-9.881,3.628-10.15,6.696c6.432-0.159,19.182-0.437,19.703-0.156
		c1.573,1.625,2.804,4.723,3.26,6.563c-2.027,0.258-5.728,1.36-8.841,2.369c0.223,0.007,0.445,0.014,0.653,0.006
		c4.25-0.149,52.438-0.361,61.188-1.063s19.882-4.54,22.116-5.689c4.375-2.25,7.967-11.894,10.467-12.394s62.516-5.149,67.459-5.833
		C227.899,47.416,223.714,44.734,222.297,44.734z"/>
	<g>
		<polygon opacity="0.5" fill="#29ABE2" points="127.265,38.003 127.265,42.786 129.983,42.892 129.983,38.354 		"/>
		<polygon opacity="0.5" fill="#29ABE2" points="123.952,37.577 123.952,42.657 126.546,42.758 126.546,37.911 		"/>
		<polygon opacity="0.5" fill="#29ABE2" points="130.702,38.447 130.702,42.919 133.796,43.04 133.796,38.846 		"/>
		<path opacity="0.5" fill="#29ABE2" d="M119.358,36.984c-0.552,0-1,0.448-1,1v3.32c0,0.552,0.604,1.18,1.156,1.18l3.719,0.145
			v-5.145L119.358,36.984z"/>
		<path opacity="0.5" fill="#29ABE2" d="M136.983,40.328c0-0.552-0.104-1.156-0.656-1.156l-1.813-0.233v4.129l1.839,0.072
			c0.553,0,0.755-0.415,0.755-0.967L136.983,40.328z"/>
	</g>
	<path fill="#A6DBF0" d="M67.786,63.984c-0.521-0.28-13.271-0.003-19.703,0.156c-0.023,0.266,0.017,0.527,0.15,0.781
		c2.615,4.993,9.634,7.854,13.971,7.994c3.114-1.009,6.814-2.111,8.841-2.369C70.589,68.707,69.358,65.609,67.786,63.984z"/>
	<g opacity="0.25">
		<path d="M105.523,61.802l-2.572-0.157c-3.935,4.206-8.7,8.559-11.396,10.955c1.009-0.012,2.021-0.023,3.033-0.036
			C97.68,69.76,102.056,65.645,105.523,61.802z"/>
		<path d="M99.912,61.459l-2.569-0.156c-4.143,4.437-9.226,9.048-11.844,11.364c1.001-0.011,2.016-0.021,3.037-0.033
			C91.658,69.815,96.288,65.483,99.912,61.459z"/>
		<path d="M94.11,61.105l-2.581-0.157c-4.565,4.853-10.169,9.853-12.374,11.782c0.993-0.01,2.012-0.02,3.051-0.03
			C85.23,69.995,90.21,65.398,94.11,61.105z"/>
		<path d="M88.088,60.738l-2.567-0.157c-4.675,5.02-10.583,10.285-12.788,12.213c0.97-0.01,1.989-0.02,3.052-0.03
			C78.887,69.99,84.113,65.167,88.088,60.738z"/>
		<path d="M82.547,60.4l-2.595-0.158c-2.974,3.117-6.505,6.383-9.332,8.901c0.176,0.509,0.322,0.99,0.425,1.403
			c-0.704,0.09-1.617,0.285-2.63,0.539c-0.85,0.74-1.565,1.352-2.065,1.776c0.905-0.012,1.953-0.023,3.118-0.035
			C72.746,69.989,78.375,64.957,82.547,60.4z"/>
		<path d="M76.977,60.061l-2.58-0.158c-1.723,1.825-3.655,3.712-5.539,5.481c0.362,0.57,0.694,1.193,0.987,1.826
			C72.284,64.932,74.841,62.423,76.977,60.061z"/>
		<path d="M66.741,63.893c1.431-1.392,2.84-2.818,4.122-4.205l-2.601-0.159c-1.392,1.448-2.896,2.924-4.389,4.337
			C65.059,63.862,66.051,63.87,66.741,63.893z"/>
		<path d="M66.549,59.424l-2.635-0.16c-1.565,1.573-3.272,3.157-4.948,4.651c1.057-0.017,2.079-0.029,3.031-0.038
			C63.578,62.42,65.142,60.908,66.549,59.424z"/>
		<path d="M111.595,62.172l-2.579-0.157c-3.821,4.043-8.326,8.163-10.958,10.505c1.021-0.014,2.034-0.028,3.039-0.043
			C104.084,69.766,108.22,65.868,111.595,62.172z"/>
		<path d="M117.196,62.514l-2.587-0.157c-3.701,3.882-7.967,7.787-10.535,10.075c1.033-0.016,2.05-0.033,3.046-0.051
			C110.006,69.759,113.921,66.063,117.196,62.514z"/>
		<path d="M122.663,62.848l-2.597-0.159c-3.57,3.714-7.598,7.406-10.102,9.641c1.055-0.021,2.076-0.042,3.058-0.064
			C115.805,69.733,119.501,66.241,122.663,62.848z"/>
		<path d="M127.971,63.171l-2.611-0.159c-3.421,3.532-7.205,7.008-9.644,9.188c1.103-0.028,2.134-0.059,3.083-0.09
			C121.471,69.673,124.943,66.393,127.971,63.171z"/>
		<path d="M132.791,63.465l-2.616-0.159c-3.257,3.34-6.796,6.597-9.169,8.722c1.262-0.053,2.296-0.108,3.04-0.168
			c0.046-0.004,0.095-0.01,0.141-0.014C126.734,69.515,129.938,66.476,132.791,63.465z"/>
		<path d="M137.051,63.725l-2.611-0.159c-2.864,2.966-5.993,5.904-8.391,8.081c1.172-0.147,2.368-0.34,3.567-0.565
			C131.972,68.885,134.656,66.282,137.051,63.725z"/>
		<path d="M142.022,64.028l-2.642-0.161c-2.372,2.384-4.933,4.734-7.116,6.667c1.42-0.319,2.811-0.67,4.141-1.034
			C138.268,67.783,140.223,65.904,142.022,64.028z"/>
		<path d="M143.965,64.146c-1.555,1.564-3.19,3.114-4.75,4.542c1.771-0.541,3.324-1.07,4.548-1.524
			c0.968-0.938,1.926-1.898,2.844-2.856L143.965,64.146z"/>
	</g>
	<path fill="#A6DBF0" d="M110.413,48.475l-9.922-0.593c-0.491-0.032-0.988,0.806-1.021,1.297l-1.045,8.373
		c-0.032,0.492,0.339,0.916,0.83,0.948l10.37,0.69c0.491,0.033,1.642-0.504,1.753-1.655l0.658-8.021
		C112.069,49.023,110.904,48.507,110.413,48.475z"/>
	<path fill="#A6DBF0" d="M86.604,46.854c-0.858,0.857-3.475,7.459-4.904,10.157c-0.276,0.521-0.117,1.232,0.301,1.232
		c0.969,0,9.751,0.843,9.883,0.078c0.244-1.413,1.723-10.684,1.045-11.361C92.755,46.787,87.008,46.449,86.604,46.854z"/>
	<path fill="#A6DBF0" d="M76.977,59.638c-8.119,1.311-11.806-1.466-16.993-2.403c4.688-7.563,11.373-11.178,15.671-12.843
		c4.298-1.665,7.954-0.288,7.641,1.277S79.615,59.212,76.977,59.638z"/>
	<path fill="#666666" d="M93.64,46.016c-0.203-0.203-6.904-0.596-7.375-0.125c-1,1-4.052,8.698-5.719,11.845
		c-0.322,0.608-0.136,1.438,0.351,1.438c1.13,0,11.371,0.982,11.524,0.091C92.706,57.615,94.43,46.807,93.64,46.016z M86.604,46.854
		c0.404-0.405,6.15-0.067,6.325,0.106c0.287,0.287,0.186,2.121-0.043,4.242l-8.446-0.121C85.351,49.054,86.187,47.272,86.604,46.854
		z M81.7,57.012c0.658-1.242,1.568-3.311,2.442-5.267l3.797,0.055l-1.327,6.735c-2.12-0.118-4.171-0.291-4.611-0.291
		C81.583,58.244,81.424,57.533,81.7,57.012z M91.884,58.322c-0.066,0.381-2.283,0.363-4.609,0.248l1.332-6.761l4.204,0.061
		C92.492,54.594,92.014,57.57,91.884,58.322z"/>
	<path fill="#666666" d="M111.046,47.859l-11.134-0.665c-0.551-0.037-1.109,0.903-1.146,1.454l-1.172,9.396
		c-0.037,0.552,0.38,1.028,0.931,1.064l11.637,0.774c0.551,0.037,1.843-0.565,1.968-1.857l0.738-9
		C112.904,48.475,111.597,47.896,111.046,47.859z M99.47,49.179c0.033-0.491,0.53-1.329,1.021-1.297l9.922,0.593
		c0.491,0.032,1.656,0.549,1.624,1.04l-0.176,2.149l-12.678-0.182L99.47,49.179z M98.425,57.552l0.674-5.402l6.698,0.096
		l-1.301,6.604L99.255,58.5C98.764,58.468,98.393,58.044,98.425,57.552z M111.378,57.535c-0.111,1.151-1.262,1.688-1.753,1.655
		l-4.518-0.301l1.307-6.636l5.392,0.077L111.378,57.535z"/>
	<path opacity="0.5" d="M93.107,68.391c-15.338-0.235-40.938,0.883-45.013-3.966c0.017,0.168,0.053,0.334,0.139,0.497
		c2.615,4.993,9.553,7.863,13.891,8.004c0,0,0.526,0.004,0.734-0.004c4.25-0.149,52.438-0.361,61.188-1.063
		s19.882-4.54,22.116-5.689c2.121-1.091,4.057-3.92,5.774-6.602C142.022,70.192,111.763,68.677,93.107,68.391z"/>
	<path opacity="0.5" d="M224.272,45.475c-0.068,0.012-0.133,0.033-0.202,0.043c-22.298,3.042-44.672,5.218-67.2,5.538
		c0.113,1.554-2.118,4.324-1.737,3.832c0.684-0.883,1.467-1.105,1.496-1.111c2.5-0.5,62.516-5.149,67.459-5.833
		C226.605,47.595,225.631,46.31,224.272,45.475z"/>
	<g opacity="0.4">
		<path fill="#FFFFFF" d="M124.833,53.091l-1.62,1.853c-0.217,0.246-0.408,0.654-0.433,0.993l-0.03,0.42l-2.597-0.187l0.043-0.599
			c0.062-0.859,0.34-1.383,0.907-2.023l1.615-1.792c0.351-0.397,0.645-0.859,0.676-1.297c0.067-0.939-0.501-1.684-1.5-1.755
			c-1.059-0.076-1.651,0.624-1.717,1.543l-2.597-0.186c0.178-2.479,2.165-3.862,4.482-3.696c2.257,0.162,4.111,1.762,3.929,4.299
			C125.92,51.663,125.446,52.393,124.833,53.091z M119.755,60.62l0.19-2.656l2.756,0.197l-0.19,2.656L119.755,60.62z"/>
		<path fill="#FFFFFF" d="M135.288,53.841l-1.619,1.853c-0.216,0.246-0.407,0.654-0.432,0.993l-0.03,0.42l-2.597-0.187l0.043-0.599
			c0.062-0.859,0.34-1.383,0.907-2.023l1.615-1.793c0.352-0.396,0.644-0.858,0.675-1.297c0.067-0.938-0.501-1.683-1.5-1.754
			c-1.059-0.076-1.651,0.624-1.718,1.543l-2.597-0.187c0.178-2.479,2.165-3.861,4.482-3.695c2.257,0.162,4.111,1.762,3.929,4.299
			C136.376,52.413,135.901,53.143,135.288,53.841z M130.212,61.369l0.19-2.656l2.755,0.198l-0.19,2.656L130.212,61.369z"/>
		<path fill="#FFFFFF" d="M145.745,54.591l-1.62,1.853c-0.217,0.246-0.408,0.654-0.433,0.993l-0.03,0.42l-2.596-0.187l0.043-0.599
			c0.062-0.859,0.34-1.383,0.907-2.023l1.614-1.793c0.352-0.396,0.645-0.858,0.676-1.297c0.067-0.938-0.5-1.683-1.499-1.754
			c-1.06-0.076-1.652,0.623-1.719,1.543l-2.597-0.187c0.178-2.479,2.164-3.861,4.482-3.695c2.257,0.162,4.111,1.762,3.93,4.299
			C146.832,53.162,146.357,53.893,145.745,54.591z M140.667,62.119l0.19-2.656l2.756,0.198l-0.19,2.656L140.667,62.119z"/>
	</g>
	<path id="windshield_highlight" opacity="0.5" fill="#FFFFFF" d="M63.092,56.011c0.255,1.615,4.299-4.443,7.799-6.439
		c3.211-1.831,10.5-4.558,9.166-4.673c-4.8-0.415-9.852,3.032-10.892,3.825C67.769,49.789,62.806,54.2,63.092,56.011z"/>
	<path id="lower_windshield_highlight" opacity="0.5" fill="#FFFFFF" d="M61.777,72.116c0.967-0.674-4.231-1.39-6.626-3.029
		c-2.197-1.505-6.257-5.368-5.912-4.469c1.242,3.241,5.064,5.431,5.905,5.854C56.273,71.043,60.694,72.871,61.777,72.116z"/>
</g>
<g id="landing_gear_front">
	<path fill="#666666" d="M81.933,79.845l0.001-0.006l-2.208-0.771h-2.75l4.307,1.938l0.472,0.131h47.596
		c0,0,0.909-0.189,0.636-0.521s-0.636-0.771-0.636-0.771H81.933z"/>
	<path fill="#666666" d="M122.518,79.979c-0.205,1.135-5.167,1.881-4.5,0.32s0.223-8.356-0.944-9.703
		c0.11-0.26,0.923-1.165,2.111-0.569C122.352,72.358,122.723,78.846,122.518,79.979z"/>
	<path fill="#666666" d="M93.893,79.76c-0.174,1.215-5.15,2.244-4.583,0.571c0.568-1.673,0.189-6.757-0.803-8.203
		c-0.552-2.351,0.468-2.695,1.479-2.057C93.362,71.834,94.067,78.542,93.893,79.76z"/>
		
		<animateTransform  type="translate" fill="freeze" from="0,0" to="0,2" begin="0s" dur="2s" values="0,1; 0,2; 0,1" restart="always" attributeName="transform" attributeType="XML" accumulate="none" additive="replace" calcMode="linear" repeatCount="indefinite">
		</animateTransform>
</g>
	
</svg>
